<?xml version="1.0" encoding="UTF-8"?>
<svg id="Layer_1" xmlns="http://www.w3.org/2000/svg" version="1.1" viewBox="0 0 637.2 642.6">
  <!-- Generator: Adobe Illustrator 30.1.0, SVG Export Plug-In . SVG Version: 2.1.1 Build 136)  -->
  <path d="M630.5,320.2c0,172.3-139.7,312-312,312S6.6,492.5,6.6,320.2,146.2,8.2,318.5,8.2s312,139.7,312,312ZM386.8,477c-8,3.4-9.7,13.3-6.5,19.7s12.1,10,19.3,6.9c92.3-39.6,142.8-138.3,121.4-235.7-20.9-94.8-105.6-162.8-202.9-162.6-97.5.2-182.1,68.9-202.3,164.2s30.2,195.4,122.4,234.4c7.6,3.2,16.4-1.1,19.2-8.3s-.5-15.8-7.9-19c-79-33.7-122.4-117.8-104.7-201.2,17.4-81.8,90.5-140.7,174.3-140.5,83.7.2,156.4,59.4,173.5,141.2,17.5,83.5-26.4,167.4-105.7,201ZM383.6,379.7c-5.9,5.9-3.8,15.5,1.4,20.3s14.1,5.6,19.5.4c49-47.9,48.8-126.2,1.4-174.1-47.9-48.4-126-48.5-174.1-.5-47.7,47.6-48.3,125.2,0,173.7,5.7,5.7,14.8,5.7,20.4.5s6.6-15.2.8-21c-37-37-36.5-96.5.2-132.8,36.6-36.1,96-35.6,131.9,1,36.1,36.7,35.8,95.7-1.4,132.5ZM357.8,312.7c0-21.7-17.6-39.2-39.2-39.2s-39.2,17.6-39.2,39.2,17.6,39.2,39.2,39.2,39.2-17.6,39.2-39.2ZM346.6,516.7l10.2-97c3.6-16.5-3.2-32.6-16.7-41.5s-30.8-8.6-43.7.3-19.8,25-16.3,41.2l10.4,97.5c1.7,15.9,12.4,28.2,28.5,27.9,15.6-.3,26-12.2,27.7-28.3Z"/>
</svg>