<?xml version="1.0" encoding="UTF-8"?>
<svg id="Layer_1" xmlns="http://www.w3.org/2000/svg" version="1.1" viewBox="0 0 800 800">
  <!-- Generator: Adobe Illustrator 30.1.0, SVG Export Plug-In . SVG Version: 2.1.1 Build 136)  -->
  <path d="M399.8,0C179.4,0,0,179.4,0,399.9s179.4,400.1,399.8,400.1,400.2-179.5,400.2-400.1S620.5,0,399.8,0ZM575.9,627.5c-3.4,6.4-10.4,10.5-17.8,10.5s-6.8-.8-10-2.6c-64.1-35.2-136.7-53.9-209.9-53.9s-87.6,6.5-129,19.4c-2,.6-4.1.9-6.2.9-9.1,0-16.9-5.8-19.5-14.3-3.6-11.7,3.8-37.7,13.4-40.8,46.4-14.1,93.9-21.3,141.3-21.3,80.5,0,159.9,20.4,229.8,59,4.2,2.3,7.9,9.7,9.6,19.1,1.7,9.3,1,18.9-1.7,23.9h0ZM625.8,479.5c-7.6,14.8-16.4,24.8-22,24.8s-7.8-1-11.6-2.9c-78.7-41-164.2-61.8-253.9-61.8s-98.9,6.6-145.5,19.5c-2.2.6-4.4.9-6.6.9-11.2,0-21.1-7.6-24-18.4-3.8-14.1,4.8-38.7,17.5-42.1,51.7-14,105.1-21.2,158.7-21.2,96.4,0,192.2,23.3,277,67.5,5.9,3,10.3,8.1,12.3,14.4,2,6.4,1.4,13.2-1.8,19.3h-.1ZM679,337.2c-4.8,9.6-15.1,19.9-26.5,19.9s-8.9-1-12.9-2.9c-94-47-195.4-70.8-301.4-70.8s-109.4,6.7-163.2,19.9c-2.4.6-4.8.9-7.2.9-13.6,0-25.3-9.2-28.6-22.3-4.1-16.6,6.3-35.9,21.3-39.6,58.4-14.4,118.2-21.6,177.6-21.6,115,0,225.2,25.9,327.5,76.9,7.1,3.5,12.4,9.6,14.9,17,2.5,7.5,2,15.5-1.6,22.7h0Z"/>
</svg>