<?xml version="1.0" encoding="UTF-8" standalone="no"?>
<!-- Created with Inkscape (http://www.inkscape.org/) -->

<svg
   width="199mm"
   height="21mm"
   viewBox="0 0 199 21"
   version="1.1"
   id="svg1"
   xml:space="preserve"
   inkscape:version="1.4.2 (ebf0e940d0, 2025-05-08)"
   sodipodi:docname="tekkipodi-logo.svg"
   xmlns:inkscape="http://www.inkscape.org/namespaces/inkscape"
   xmlns:sodipodi="http://sodipodi.sourceforge.net/DTD/sodipodi-0.dtd"
   xmlns="http://www.w3.org/2000/svg"
   xmlns:svg="http://www.w3.org/2000/svg"><sodipodi:namedview
     id="namedview1"
     pagecolor="#ffffff"
     bordercolor="#000000"
     borderopacity="0.25"
     inkscape:showpageshadow="2"
     inkscape:pageopacity="0.0"
     inkscape:pagecheckerboard="0"
     inkscape:deskcolor="#d1d1d1"
     inkscape:document-units="mm"
     inkscape:zoom="1.4095387"
     inkscape:cx="395.51946"
     inkscape:cy="200.42018"
     inkscape:window-width="1920"
     inkscape:window-height="1052"
     inkscape:window-x="0"
     inkscape:window-y="0"
     inkscape:window-maximized="1"
     inkscape:current-layer="layer1" /><defs
     id="defs1" /><g
     inkscape:label="Layer 1"
     inkscape:groupmode="layer"
     id="layer1"><path
       d="m 6.6876942,5.7206153 h 5.1436628 c 0.250193,0 0.375289,-0.367931 0.375289,-1.1037907 0,-0.7358602 -0.125096,-1.1037903 -0.375289,-1.1037903 H 6.6876942 c -0.2354753,0 -0.3532129,0.3679301 -0.3532129,1.1037903 0,0.7358597 0.1177376,1.1037907 0.3532129,1.1037907 z M 0.81552981,2.7845327 H 17.703521 c 0.250193,0 0.375289,-0.3679301 0.375289,-1.1037903 0,-0.73586019 -0.125096,-1.10379029 -0.375289,-1.10379029 H 0.81552981 c -0.23547523,0 -0.35321283,0.3679301 -0.35321283,1.10379029 0,0.7358602 0.1177376,1.1037903 0.35321283,1.1037903 z M 6.6876942,8.6566973 h 5.1436628 c 0.250193,0 0.375289,-0.36793 0.375289,-1.103791 0,-0.73586 -0.125096,-1.10379 -0.375289,-1.10379 H 6.6876942 c -0.2354753,0 -0.3532129,0.36793 -0.3532129,1.10379 0,0.735861 0.1177376,1.103791 0.3532129,1.103791 z m 0,8.8082457 h 5.1436628 c 0.250193,0 0.375289,-0.36793 0.375289,-1.10379 0,-0.73586 -0.125096,-1.10379 -0.375289,-1.10379 H 6.6876942 c -0.2354753,0 -0.3532129,0.36793 -0.3532129,1.10379 0,0.73586 0.1177376,1.10379 0.3532129,1.10379 z m 0,2.936082 h 5.1436628 c 0.250193,0 0.375289,-0.36793 0.375289,-1.10379 0,-0.73586 -0.125096,-1.10379 -0.375289,-1.10379 H 6.6876942 c -0.2354753,0 -0.3532129,0.36793 -0.3532129,1.10379 0,0.73586 0.1177376,1.10379 0.3532129,1.10379 z m 0,-8.808246 h 5.1436628 c 0.250193,0 0.375289,-0.36793 0.375289,-1.103791 0,-0.7358597 -0.125096,-1.1037897 -0.375289,-1.1037897 H 6.6876942 c -0.2354753,0 -0.3532129,0.36793 -0.3532129,1.1037897 0,0.735861 0.1177376,1.103791 0.3532129,1.103791 z m 0,2.936082 h 5.1436628 c 0.250193,0 0.375289,-0.36793 0.375289,-1.10379 0,-0.735861 -0.125096,-1.103791 -0.375289,-1.103791 H 6.6876942 c -0.2354753,0 -0.3532129,0.36793 -0.3532129,1.103791 0,0.73586 0.1177376,1.10379 0.3532129,1.10379 z M 21.368082,5.7206153 h 5.143663 c 0.250192,0 0.375288,-0.367931 0.375288,-1.1037907 0,-0.7358602 -0.125096,-1.1037903 -0.375288,-1.1037903 h -5.143663 c -0.235475,0 -0.353213,0.3679301 -0.353213,1.1037903 0,0.7358597 0.117738,1.1037907 0.353213,1.1037907 z m 0,-2.9360826 h 19.824073 c 0.250193,0 0.375289,-0.3679301 0.375289,-1.1037903 0,-0.73586019 -0.125096,-1.10379029 -0.375289,-1.10379029 H 21.368082 c -0.235475,0 -0.353213,0.3679301 -0.353213,1.10379029 0,0.7358602 0.117738,1.1037903 0.353213,1.1037903 z m 0,5.8721646 h 5.143663 c 0.250192,0 0.375288,-0.36793 0.375288,-1.103791 0,-0.73586 -0.125096,-1.10379 -0.375288,-1.10379 h -5.143663 c -0.235475,0 -0.353213,0.36793 -0.353213,1.10379 0,0.735861 0.117738,1.103791 0.353213,1.103791 z m 0,5.8721637 h 5.143663 c 0.250192,0 0.375288,-0.36793 0.375288,-1.10379 0,-0.735861 -0.125096,-1.103791 -0.375288,-1.103791 h -5.143663 c -0.235475,0 -0.353213,0.36793 -0.353213,1.103791 0,0.73586 0.117738,1.10379 0.353213,1.10379 z m 0,-2.936082 h 16.887991 c 0.250193,0 0.375289,-0.36793 0.375289,-1.103791 0,-0.7358597 -0.125096,-1.1037897 -0.375289,-1.1037897 H 21.368082 c -0.235475,0 -0.353213,0.36793 -0.353213,1.1037897 0,0.735861 0.117738,1.103791 0.353213,1.103791 z m 0,5.872164 h 5.143663 c 0.250192,0 0.375288,-0.36793 0.375288,-1.10379 0,-0.73586 -0.125096,-1.10379 -0.375288,-1.10379 h -5.143663 c -0.235475,0 -0.353213,0.36793 -0.353213,1.10379 0,0.73586 0.117738,1.10379 0.353213,1.10379 z m 0,2.936082 h 19.824073 c 0.250193,0 0.375289,-0.36793 0.375289,-1.10379 0,-0.73586 -0.125096,-1.10379 -0.375289,-1.10379 H 21.368082 c -0.235475,0 -0.353213,0.36793 -0.353213,1.10379 0,0.73586 0.117738,1.10379 0.353213,1.10379 z M 44.856716,5.7206153 h 5.143663 c 0.250192,0 0.375288,-0.367931 0.375288,-1.1037907 0,-0.7358602 -0.125096,-1.1037903 -0.375288,-1.1037903 h -5.143663 c -0.235475,0 -0.353213,0.3679301 -0.353213,1.1037903 0,0.7358597 0.117738,1.1037907 0.353213,1.1037907 z m 0,2.936082 h 5.143663 c 0.250192,0 0.375288,-0.36793 0.375288,-1.103791 0,-0.73586 -0.125096,-1.10379 -0.375288,-1.10379 h -5.143663 c -0.235475,0 -0.353213,0.36793 -0.353213,1.10379 0,0.735861 0.117738,1.103791 0.353213,1.103791 z m 0,5.8721637 h 13.951909 c 0.250193,0 0.375289,-0.36793 0.375289,-1.10379 0,-0.735861 -0.125096,-1.103791 -0.375289,-1.103791 H 44.856716 c -0.235475,0 -0.353213,0.36793 -0.353213,1.103791 0,0.73586 0.117738,1.10379 0.353213,1.10379 z m 0,-2.936082 h 11.015827 c 0.250193,0 0.375289,-0.36793 0.375289,-1.103791 0,-0.7358597 -0.125096,-1.1037897 -0.375289,-1.1037897 H 44.856716 c -0.235475,0 -0.353213,0.36793 -0.353213,1.1037897 0,0.735861 0.117738,1.103791 0.353213,1.103791 z m 0,5.872164 h 5.143663 c 0.250192,0 0.375288,-0.36793 0.375288,-1.10379 0,-0.73586 -0.125096,-1.10379 -0.375288,-1.10379 h -5.143663 c -0.235475,0 -0.353213,0.36793 -0.353213,1.10379 0,0.73586 0.117738,1.10379 0.353213,1.10379 z m 0,2.936082 h 5.143663 c 0.250192,0 0.375288,-0.36793 0.375288,-1.10379 0,-0.73586 -0.125096,-1.10379 -0.375288,-1.10379 h -5.143663 c -0.235475,0 -0.353213,0.36793 -0.353213,1.10379 0,0.73586 0.117738,1.10379 0.353213,1.10379 z m 0,-17.6164923 h 5.143663 c 0.250192,0 0.375288,-0.3679301 0.375288,-1.1037903 0,-0.73586019 -0.125096,-1.10379029 -0.375288,-1.10379029 h -5.143663 c -0.235475,0 -0.353213,0.3679301 -0.353213,1.10379029 0,0.7358602 0.117738,1.1037903 0.353213,1.1037903 z m 11.744329,2.9360826 h 5.143662 c 0.250193,0 0.375289,-0.367931 0.375289,-1.1037907 0,-0.7358602 -0.125096,-1.1037903 -0.375289,-1.1037903 h -5.143662 c -0.235475,0 -0.353213,0.3679301 -0.353213,1.1037903 0,0.7358597 0.117738,1.1037907 0.353213,1.1037907 z m -2.936083,2.936082 h 5.143663 c 0.250193,0 0.375289,-0.36793 0.375289,-1.103791 0,-0.73586 -0.125096,-1.10379 -0.375289,-1.10379 h -5.143663 c -0.235475,0 -0.353212,0.36793 -0.353212,1.10379 0,0.735861 0.117737,1.103791 0.353212,1.103791 z m 5.872165,-5.8721646 h 5.143663 c 0.250192,0 0.375288,-0.3679301 0.375288,-1.1037903 0,-0.73586019 -0.125096,-1.10379029 -0.375288,-1.10379029 h -5.143663 c -0.235475,0 -0.353213,0.3679301 -0.353213,1.10379029 0,0.7358602 0.117738,1.1037903 0.353213,1.1037903 z M 53.664962,17.464943 h 8.079745 c 0.250193,0 0.375289,-0.36793 0.375289,-1.10379 0,-0.73586 -0.125096,-1.10379 -0.375289,-1.10379 h -8.079745 c -0.235475,0 -0.353212,0.36793 -0.353212,1.10379 0,0.73586 0.117737,1.10379 0.353212,1.10379 z m 2.936083,2.936082 h 8.079745 c 0.250192,0 0.375288,-0.36793 0.375288,-1.10379 0,-0.73586 -0.125096,-1.10379 -0.375288,-1.10379 h -8.079745 c -0.235475,0 -0.353213,0.36793 -0.353213,1.10379 0,0.73586 0.117738,1.10379 0.353213,1.10379 z M 68.345352,5.7206153 h 5.143663 c 0.250192,0 0.375288,-0.367931 0.375288,-1.1037907 0,-0.7358602 -0.125096,-1.1037903 -0.375288,-1.1037903 h -5.143663 c -0.235475,0 -0.353213,0.3679301 -0.353213,1.1037903 0,0.7358597 0.117738,1.1037907 0.353213,1.1037907 z m 0,2.936082 h 5.143663 c 0.250192,0 0.375288,-0.36793 0.375288,-1.103791 0,-0.73586 -0.125096,-1.10379 -0.375288,-1.10379 h -5.143663 c -0.235475,0 -0.353213,0.36793 -0.353213,1.10379 0,0.735861 0.117738,1.103791 0.353213,1.103791 z m 0,5.8721637 h 13.951909 c 0.250193,0 0.375289,-0.36793 0.375289,-1.10379 0,-0.735861 -0.125096,-1.103791 -0.375289,-1.103791 H 68.345352 c -0.235475,0 -0.353213,0.36793 -0.353213,1.103791 0,0.73586 0.117738,1.10379 0.353213,1.10379 z m 0,-2.936082 h 11.015827 c 0.250193,0 0.375289,-0.36793 0.375289,-1.103791 0,-0.7358597 -0.125096,-1.1037897 -0.375289,-1.1037897 H 68.345352 c -0.235475,0 -0.353213,0.36793 -0.353213,1.1037897 0,0.735861 0.117738,1.103791 0.353213,1.103791 z m 0,5.872164 h 5.143663 c 0.250192,0 0.375288,-0.36793 0.375288,-1.10379 0,-0.73586 -0.125096,-1.10379 -0.375288,-1.10379 h -5.143663 c -0.235475,0 -0.353213,0.36793 -0.353213,1.10379 0,0.73586 0.117738,1.10379 0.353213,1.10379 z m 0,2.936082 h 5.143663 c 0.250192,0 0.375288,-0.36793 0.375288,-1.10379 0,-0.73586 -0.125096,-1.10379 -0.375288,-1.10379 h -5.143663 c -0.235475,0 -0.353213,0.36793 -0.353213,1.10379 0,0.73586 0.117738,1.10379 0.353213,1.10379 z m 0,-17.6164923 h 5.143663 c 0.250192,0 0.375288,-0.3679301 0.375288,-1.1037903 0,-0.73586019 -0.125096,-1.10379029 -0.375288,-1.10379029 h -5.143663 c -0.235475,0 -0.353213,0.3679301 -0.353213,1.10379029 0,0.7358602 0.117738,1.1037903 0.353213,1.1037903 z m 11.744329,2.9360826 h 5.143662 c 0.250193,0 0.375289,-0.367931 0.375289,-1.1037907 0,-0.7358602 -0.125096,-1.1037903 -0.375289,-1.1037903 h -5.143662 c -0.235475,0 -0.353213,0.3679301 -0.353213,1.1037903 0,0.7358597 0.117738,1.1037907 0.353213,1.1037907 z m -2.936082,2.936082 h 5.143662 c 0.250193,0 0.375289,-0.36793 0.375289,-1.103791 0,-0.73586 -0.125096,-1.10379 -0.375289,-1.10379 h -5.143662 c -0.235475,0 -0.353213,0.36793 -0.353213,1.10379 0,0.735861 0.117738,1.103791 0.353213,1.103791 z m 5.872164,-5.8721646 h 5.143663 c 0.250192,0 0.375288,-0.3679301 0.375288,-1.1037903 0,-0.73586019 -0.125096,-1.10379029 -0.375288,-1.10379029 h -5.143663 c -0.235475,0 -0.353213,0.3679301 -0.353213,1.10379029 0,0.7358602 0.117738,1.1037903 0.353213,1.1037903 z M 77.153599,17.464943 h 8.079744 c 0.250193,0 0.375289,-0.36793 0.375289,-1.10379 0,-0.73586 -0.125096,-1.10379 -0.375289,-1.10379 h -8.079744 c -0.235475,0 -0.353213,0.36793 -0.353213,1.10379 0,0.73586 0.117738,1.10379 0.353213,1.10379 z m 2.936082,2.936082 h 8.079745 c 0.250192,0 0.375288,-0.36793 0.375288,-1.10379 0,-0.73586 -0.125096,-1.10379 -0.375288,-1.10379 h -8.079745 c -0.235475,0 -0.353213,0.36793 -0.353213,1.10379 0,0.73586 0.117738,1.10379 0.353213,1.10379 z M 92.124232,2.7845327 h 16.887978 c 0.2502,0 0.37529,-0.3679301 0.37529,-1.1037903 0,-0.73586019 -0.12509,-1.10379029 -0.37529,-1.10379029 H 92.124232 c -0.235475,0 -0.353213,0.3679301 -0.353213,1.10379029 0,0.7358602 0.117738,1.1037903 0.353213,1.1037903 z m 5.87216,2.9360826 h 5.143658 c 0.2502,0 0.37529,-0.367931 0.37529,-1.1037907 0,-0.7358602 -0.12509,-1.1037903 -0.37529,-1.1037903 h -5.143658 c -0.235473,0 -0.35321,0.3679301 -0.35321,1.1037903 0,0.7358597 0.117737,1.1037907 0.35321,1.1037907 z m 0,2.936082 h 5.143658 c 0.2502,0 0.37529,-0.36793 0.37529,-1.103791 0,-0.73586 -0.12509,-1.10379 -0.37529,-1.10379 h -5.143658 c -0.235473,0 -0.35321,0.36793 -0.35321,1.10379 0,0.735861 0.117737,1.103791 0.35321,1.103791 z m 0,2.9360817 h 5.143658 c 0.2502,0 0.37529,-0.36793 0.37529,-1.103791 0,-0.7358597 -0.12509,-1.1037897 -0.37529,-1.1037897 h -5.143658 c -0.235473,0 -0.35321,0.36793 -0.35321,1.1037897 0,0.735861 0.117737,1.103791 0.35321,1.103791 z m 0,2.936082 h 5.143658 c 0.2502,0 0.37529,-0.36793 0.37529,-1.10379 0,-0.735861 -0.12509,-1.103791 -0.37529,-1.103791 h -5.143658 c -0.235473,0 -0.35321,0.36793 -0.35321,1.103791 0,0.73586 0.117737,1.10379 0.35321,1.10379 z m 0,2.936082 h 5.143658 c 0.2502,0 0.37529,-0.36793 0.37529,-1.10379 0,-0.73586 -0.12509,-1.10379 -0.37529,-1.10379 h -5.143658 c -0.235473,0 -0.35321,0.36793 -0.35321,1.10379 0,0.73586 0.117737,1.10379 0.35321,1.10379 z m -5.87216,2.936082 h 16.887978 c 0.2502,0 0.37529,-0.36793 0.37529,-1.10379 0,-0.73586 -0.12509,-1.10379 -0.37529,-1.10379 H 92.124232 c -0.235475,0 -0.353213,0.36793 -0.353213,1.10379 0,0.73586 0.117738,1.10379 0.353213,1.10379 z M 112.67677,5.7206153 h 5.14366 c 0.2502,0 0.37529,-0.367931 0.37529,-1.1037907 0,-0.7358602 -0.12509,-1.1037903 -0.37529,-1.1037903 h -5.14366 c -0.23547,0 -0.35321,0.3679301 -0.35321,1.1037903 0,0.7358597 0.11774,1.1037907 0.35321,1.1037907 z m 14.68041,0 h 5.14366 c 0.2502,0 0.37529,-0.367931 0.37529,-1.1037907 0,-0.7358602 -0.12509,-1.1037903 -0.37529,-1.1037903 h -5.14366 c -0.23547,0 -0.35321,0.3679301 -0.35321,1.1037903 0,0.7358597 0.11774,1.1037907 0.35321,1.1037907 z M 112.67677,2.7845327 h 16.88799 c 0.2502,0 0.37529,-0.3679301 0.37529,-1.1037903 0,-0.73586019 -0.12509,-1.10379029 -0.37529,-1.10379029 h -16.88799 c -0.23547,0 -0.35321,0.3679301 -0.35321,1.10379029 0,0.7358602 0.11774,1.1037903 0.35321,1.1037903 z m 0,5.8721646 h 5.14366 c 0.2502,0 0.37529,-0.36793 0.37529,-1.103791 0,-0.73586 -0.12509,-1.10379 -0.37529,-1.10379 h -5.14366 c -0.23547,0 -0.35321,0.36793 -0.35321,1.10379 0,0.735861 0.11774,1.103791 0.35321,1.103791 z m 14.68041,0 h 5.14366 c 0.2502,0 0.37529,-0.36793 0.37529,-1.103791 0,-0.73586 -0.12509,-1.10379 -0.37529,-1.10379 h -5.14366 c -0.23547,0 -0.35321,0.36793 -0.35321,1.10379 0,0.735861 0.11774,1.103791 0.35321,1.103791 z m -14.68041,5.8721637 h 16.88799 c 0.2502,0 0.37529,-0.36793 0.37529,-1.10379 0,-0.735861 -0.12509,-1.103791 -0.37529,-1.103791 h -16.88799 c -0.23547,0 -0.35321,0.36793 -0.35321,1.103791 0,0.73586 0.11774,1.10379 0.35321,1.10379 z m 0,-2.936082 h 5.14366 c 0.2502,0 0.37529,-0.36793 0.37529,-1.103791 0,-0.7358597 -0.12509,-1.1037897 -0.37529,-1.1037897 h -5.14366 c -0.23547,0 -0.35321,0.36793 -0.35321,1.1037897 0,0.735861 0.11774,1.103791 0.35321,1.103791 z m 0,5.872164 h 5.14366 c 0.2502,0 0.37529,-0.36793 0.37529,-1.10379 0,-0.73586 -0.12509,-1.10379 -0.37529,-1.10379 h -5.14366 c -0.23547,0 -0.35321,0.36793 -0.35321,1.10379 0,0.73586 0.11774,1.10379 0.35321,1.10379 z m 0,2.936082 h 5.14366 c 0.2502,0 0.37529,-0.36793 0.37529,-1.10379 0,-0.73586 -0.12509,-1.10379 -0.37529,-1.10379 h -5.14366 c -0.23547,0 -0.35321,0.36793 -0.35321,1.10379 0,0.73586 0.11774,1.10379 0.35321,1.10379 z m 14.68041,-8.808246 h 5.14366 c 0.2502,0 0.37529,-0.36793 0.37529,-1.103791 0,-0.7358597 -0.12509,-1.1037897 -0.37529,-1.1037897 h -5.14366 c -0.23547,0 -0.35321,0.36793 -0.35321,1.1037897 0,0.735861 0.11774,1.103791 0.35321,1.103791 z m 8.80823,-5.8721637 h 5.14366 c 0.2502,0 0.37529,-0.367931 0.37529,-1.1037907 0,-0.7358602 -0.12509,-1.1037903 -0.37529,-1.1037903 h -5.14366 c -0.23547,0 -0.35321,0.3679301 -0.35321,1.1037903 0,0.7358597 0.11774,1.1037907 0.35321,1.1037907 z m 14.68041,0 h 5.14366 c 0.2502,0 0.37529,-0.367931 0.37529,-1.1037907 0,-0.7358602 -0.12509,-1.1037903 -0.37529,-1.1037903 h -5.14366 c -0.23547,0 -0.35321,0.3679301 -0.35321,1.1037903 0,0.7358597 0.11774,1.1037907 0.35321,1.1037907 z M 139.10149,2.7845327 h 13.95191 c 0.2502,0 0.37529,-0.3679301 0.37529,-1.1037903 0,-0.73586019 -0.12509,-1.10379029 -0.37529,-1.10379029 h -13.95191 c -0.23547,0 -0.35321,0.3679301 -0.35321,1.10379029 0,0.7358602 0.11774,1.1037903 0.35321,1.1037903 z m -2.93608,5.8721646 h 5.14366 c 0.2502,0 0.37529,-0.36793 0.37529,-1.103791 0,-0.73586 -0.12509,-1.10379 -0.37529,-1.10379 h -5.14366 c -0.23547,0 -0.35321,0.36793 -0.35321,1.10379 0,0.735861 0.11774,1.103791 0.35321,1.103791 z m 14.68041,0 h 5.14366 c 0.2502,0 0.37529,-0.36793 0.37529,-1.103791 0,-0.73586 -0.12509,-1.10379 -0.37529,-1.10379 h -5.14366 c -0.23547,0 -0.35321,0.36793 -0.35321,1.10379 0,0.735861 0.11774,1.103791 0.35321,1.103791 z m -14.68041,5.8721637 h 5.14366 c 0.2502,0 0.37529,-0.36793 0.37529,-1.10379 0,-0.735861 -0.12509,-1.103791 -0.37529,-1.103791 h -5.14366 c -0.23547,0 -0.35321,0.36793 -0.35321,1.103791 0,0.73586 0.11774,1.10379 0.35321,1.10379 z m 14.68041,0 h 5.14366 c 0.2502,0 0.37529,-0.36793 0.37529,-1.10379 0,-0.735861 -0.12509,-1.103791 -0.37529,-1.103791 h -5.14366 c -0.23547,0 -0.35321,0.36793 -0.35321,1.103791 0,0.73586 0.11774,1.10379 0.35321,1.10379 z m -14.68041,-2.936082 h 5.14366 c 0.2502,0 0.37529,-0.36793 0.37529,-1.103791 0,-0.7358597 -0.12509,-1.1037897 -0.37529,-1.1037897 h -5.14366 c -0.23547,0 -0.35321,0.36793 -0.35321,1.1037897 0,0.735861 0.11774,1.103791 0.35321,1.103791 z m 0,5.872164 h 5.14366 c 0.2502,0 0.37529,-0.36793 0.37529,-1.10379 0,-0.73586 -0.12509,-1.10379 -0.37529,-1.10379 h -5.14366 c -0.23547,0 -0.35321,0.36793 -0.35321,1.10379 0,0.73586 0.11774,1.10379 0.35321,1.10379 z m 14.68041,0 h 5.14366 c 0.2502,0 0.37529,-0.36793 0.37529,-1.10379 0,-0.73586 -0.12509,-1.10379 -0.37529,-1.10379 h -5.14366 c -0.23547,0 -0.35321,0.36793 -0.35321,1.10379 0,0.73586 0.11774,1.10379 0.35321,1.10379 z m -11.74433,2.936082 h 13.95191 c 0.2502,0 0.37529,-0.36793 0.37529,-1.10379 0,-0.73586 -0.12509,-1.10379 -0.37529,-1.10379 h -13.95191 c -0.23547,0 -0.35321,0.36793 -0.35321,1.10379 0,0.73586 0.11774,1.10379 0.35321,1.10379 z m 11.74433,-8.808246 h 5.14366 c 0.2502,0 0.37529,-0.36793 0.37529,-1.103791 0,-0.7358597 -0.12509,-1.1037897 -0.37529,-1.1037897 h -5.14366 c -0.23547,0 -0.35321,0.36793 -0.35321,1.1037897 0,0.735861 0.11774,1.103791 0.35321,1.103791 z m 8.80822,-5.8721637 h 5.14367 c 0.25019,0 0.37528,-0.367931 0.37528,-1.1037907 0,-0.7358602 -0.12509,-1.1037903 -0.37528,-1.1037903 h -5.14367 c -0.23547,0 -0.35321,0.3679301 -0.35321,1.1037903 0,0.7358597 0.11774,1.1037907 0.35321,1.1037907 z m 11.74433,0 h 5.14366 c 0.2502,0 0.37529,-0.367931 0.37529,-1.1037907 0,-0.7358602 -0.12509,-1.1037903 -0.37529,-1.1037903 h -5.14366 c -0.23547,0 -0.35321,0.3679301 -0.35321,1.1037903 0,0.7358597 0.11774,1.1037907 0.35321,1.1037907 z M 159.65404,2.7845327 h 13.95191 c 0.2502,0 0.37529,-0.3679301 0.37529,-1.1037903 0,-0.73586019 -0.12509,-1.10379029 -0.37529,-1.10379029 h -13.95191 c -0.23547,0 -0.35321,0.3679301 -0.35321,1.10379029 0,0.7358602 0.11774,1.1037903 0.35321,1.1037903 z m 0,5.8721646 h 5.14367 c 0.25019,0 0.37528,-0.36793 0.37528,-1.103791 0,-0.73586 -0.12509,-1.10379 -0.37528,-1.10379 h -5.14367 c -0.23547,0 -0.35321,0.36793 -0.35321,1.10379 0,0.735861 0.11774,1.103791 0.35321,1.103791 z m 14.68041,0 h 5.14367 c 0.25019,0 0.37528,-0.36793 0.37528,-1.103791 0,-0.73586 -0.12509,-1.10379 -0.37528,-1.10379 h -5.14367 c -0.23547,0 -0.35321,0.36793 -0.35321,1.10379 0,0.735861 0.11774,1.103791 0.35321,1.103791 z m -14.68041,5.8721637 h 5.14367 c 0.25019,0 0.37528,-0.36793 0.37528,-1.10379 0,-0.735861 -0.12509,-1.103791 -0.37528,-1.103791 h -5.14367 c -0.23547,0 -0.35321,0.36793 -0.35321,1.103791 0,0.73586 0.11774,1.10379 0.35321,1.10379 z m 14.68041,0 h 5.14367 c 0.25019,0 0.37528,-0.36793 0.37528,-1.10379 0,-0.735861 -0.12509,-1.103791 -0.37528,-1.103791 h -5.14367 c -0.23547,0 -0.35321,0.36793 -0.35321,1.103791 0,0.73586 0.11774,1.10379 0.35321,1.10379 z m -14.68041,-2.936082 h 5.14367 c 0.25019,0 0.37528,-0.36793 0.37528,-1.103791 0,-0.7358597 -0.12509,-1.1037897 -0.37528,-1.1037897 h -5.14367 c -0.23547,0 -0.35321,0.36793 -0.35321,1.1037897 0,0.735861 0.11774,1.103791 0.35321,1.103791 z m 0,5.872164 h 5.14367 c 0.25019,0 0.37528,-0.36793 0.37528,-1.10379 0,-0.73586 -0.12509,-1.10379 -0.37528,-1.10379 h -5.14367 c -0.23547,0 -0.35321,0.36793 -0.35321,1.10379 0,0.73586 0.11774,1.10379 0.35321,1.10379 z m 11.74433,0 h 5.14366 c 0.2502,0 0.37529,-0.36793 0.37529,-1.10379 0,-0.73586 -0.12509,-1.10379 -0.37529,-1.10379 h -5.14366 c -0.23547,0 -0.35321,0.36793 -0.35321,1.10379 0,0.73586 0.11774,1.10379 0.35321,1.10379 z m -11.74433,2.936082 h 13.95191 c 0.2502,0 0.37529,-0.36793 0.37529,-1.10379 0,-0.73586 -0.12509,-1.10379 -0.37529,-1.10379 h -13.95191 c -0.23547,0 -0.35321,0.36793 -0.35321,1.10379 0,0.73586 0.11774,1.10379 0.35321,1.10379 z m 14.68041,-8.808246 h 5.14367 c 0.25019,0 0.37528,-0.36793 0.37528,-1.103791 0,-0.7358597 -0.12509,-1.1037897 -0.37528,-1.1037897 h -5.14367 c -0.23547,0 -0.35321,0.36793 -0.35321,1.1037897 0,0.735861 0.11774,1.103791 0.35321,1.103791 z m 6.98181,-8.8082463 h 16.88799 c 0.2502,0 0.37529,-0.3679301 0.37529,-1.1037903 0,-0.73586019 -0.12509,-1.10379029 -0.37529,-1.10379029 h -16.88799 c -0.23548,0 -0.35322,0.3679301 -0.35322,1.10379029 0,0.7358602 0.11774,1.1037903 0.35322,1.1037903 z m 5.87216,2.9360826 h 5.14366 c 0.2502,0 0.37529,-0.367931 0.37529,-1.1037907 0,-0.7358602 -0.12509,-1.1037903 -0.37529,-1.1037903 h -5.14366 c -0.23547,0 -0.35321,0.3679301 -0.35321,1.1037903 0,0.7358597 0.11774,1.1037907 0.35321,1.1037907 z m 0,2.936082 h 5.14366 c 0.2502,0 0.37529,-0.36793 0.37529,-1.103791 0,-0.73586 -0.12509,-1.10379 -0.37529,-1.10379 h -5.14366 c -0.23547,0 -0.35321,0.36793 -0.35321,1.10379 0,0.735861 0.11774,1.103791 0.35321,1.103791 z m 0,2.9360817 h 5.14366 c 0.2502,0 0.37529,-0.36793 0.37529,-1.103791 0,-0.7358597 -0.12509,-1.1037897 -0.37529,-1.1037897 h -5.14366 c -0.23547,0 -0.35321,0.36793 -0.35321,1.1037897 0,0.735861 0.11774,1.103791 0.35321,1.103791 z m 0,2.936082 h 5.14366 c 0.2502,0 0.37529,-0.36793 0.37529,-1.10379 0,-0.735861 -0.12509,-1.103791 -0.37529,-1.103791 h -5.14366 c -0.23547,0 -0.35321,0.36793 -0.35321,1.103791 0,0.73586 0.11774,1.10379 0.35321,1.10379 z m 0,2.936082 h 5.14366 c 0.2502,0 0.37529,-0.36793 0.37529,-1.10379 0,-0.73586 -0.12509,-1.10379 -0.37529,-1.10379 h -5.14366 c -0.23547,0 -0.35321,0.36793 -0.35321,1.10379 0,0.73586 0.11774,1.10379 0.35321,1.10379 z m -5.87216,2.936082 h 16.88799 c 0.2502,0 0.37529,-0.36793 0.37529,-1.10379 0,-0.73586 -0.12509,-1.10379 -0.37529,-1.10379 h -16.88799 c -0.23548,0 -0.35322,0.36793 -0.35322,1.10379 0,0.73586 0.11774,1.10379 0.35322,1.10379 z"
       id="text1"
       style="font-size:23.9964px;font-family:'Arcade Interlaced';-inkscape-font-specification:'Arcade Interlaced, Normal';fill:#000000;stroke-width:0.200879"
       aria-label="TEKKIPODI"
       sodipodi:nodetypes="ssssssssssssssssssssssssssssssssssssssssssssssssssssssssssssssssssssssssssssssssssssssssssssssssssssssssssssssssssssssssssssssssssssssssssssssssssssssssssssssssssssssssssssssssssssssssssssssssssssssssssssssssssssssssssssssssssssssssssssssssssssssssssssssssssssssssssssssssssssssssssssssssssssssssssssssssssssssssssssssssssssssssssssssssssssssssssssssssssssssssssssssssssssssssssssssssssssssssssssssssssssssssssssssssssssssssssssssssssssssssssssssssssssssssssssssssssssssssssssssssssssssssssssssssssssssssssssssssssssssssssssssssssssssssssssssssssssssssssssssssssssssssssssssssssssssssssssssssssssssssss" /></g></svg>
